<?xml version="1.0" standalone="no"?>
<!DOCTYPE svg PUBLIC "-//W3C//DTD SVG 20010904//EN"
 "http://www.w3.org/TR/2001/REC-SVG-20010904/DTD/svg10.dtd">
<svg version="1.0" xmlns="http://www.w3.org/2000/svg"
 width="260.000000pt" height="260.000000pt" viewBox="0 0 260.000000 260.000000"
 preserveAspectRatio="xMidYMid meet">
<metadata>
Created by potrace 1.11, written by Peter Selinger 2001-2013
</metadata>
<g transform="translate(0.000000,260.000000) scale(0.100000,-0.100000)"
fill="#000000" stroke="none">
<path d="M1175 2450 c-159 -29 -302 -106 -421 -224 -96 -96 -154 -191 -197
-318 -29 -87 -31 -102 -31 -238 0 -131 3 -153 28 -230 33 -101 81 -191 141
-265 25 -30 69 -102 99 -162 29 -59 71 -137 91 -173 21 -36 43 -74 49 -85 6
-11 21 -34 34 -52 12 -17 22 -34 22 -38 0 -3 11 -21 24 -38 13 -18 27 -42 30
-53 4 -12 15 -29 26 -39 11 -10 20 -23 20 -28 0 -5 17 -37 39 -71 21 -34 41
-71 45 -82 3 -12 15 -29 26 -39 11 -10 20 -22 20 -28 0 -12 71 -127 79 -127 7
0 28 35 74 120 16 30 38 69 49 85 24 38 266 455 344 594 33 57 87 135 122 173
81 91 137 186 175 300 29 87 31 103 31 238 0 135 -2 151 -31 238 -43 127 -101
222 -197 318 -150 150 -318 223 -526 229 -63 2 -137 0 -165 -5z"/>
</g>
</svg>
